<?xml version="1.0" standalone="no"?>
<!DOCTYPE svg PUBLIC "-//W3C//DTD SVG 20010904//EN"
 "http://www.w3.org/TR/2001/REC-SVG-20010904/DTD/svg10.dtd">
<svg version="1.0" xmlns="http://www.w3.org/2000/svg"
 width="240.000000pt" height="240.000000pt" viewBox="0 0 240.000000 240.000000"
 preserveAspectRatio="xMidYMid meet">
<metadata>
Created by potrace 1.13, written by Peter Selinger 2001-2015
</metadata>
<g transform="translate(0.000000,240.000000) scale(0.100000,-0.100000)"
fill="#000000" stroke="none">
<path d="M1085 2233 c-287 -47 -539 -194 -695 -403 -115 -156 -176 -306 -207
-508 -17 -117 -17 -119 14 -364 4 -28 -3 -52 -26 -99 -23 -46 -31 -76 -31
-113 1 -57 4 -65 125 -270 167 -285 183 -301 259 -275 31 10 49 27 73 64 18
28 36 50 41 50 4 0 41 -19 83 -42 101 -57 232 -98 374 -119 102 -14 131 -15
224 -4 305 36 557 176 735 409 74 97 150 252 183 376 23 87 27 120 27 250 1
159 -11 232 -59 366 l-23 66 43 76 c59 103 69 138 55 181 -21 65 -36 71 -193
75 l-141 3 -51 42 c-129 109 -253 171 -440 221 -60 16 -310 28 -370 18z m390
-51 c150 -41 298 -118 409 -213 l58 -49 134 0 c130 0 136 -1 159 -25 36 -36
31 -68 -29 -179 l-53 -100 22 -55 c49 -126 60 -197 60 -371 -1 -171 -9 -220
-56 -350 -89 -240 -275 -447 -504 -559 -118 -57 -169 -74 -290 -95 -154 -27
-311 -15 -475 35 -66 20 -203 86 -252 120 -14 10 -28 19 -31 19 -3 0 -19 -24
-36 -54 -34 -61 -63 -86 -101 -86 -31 0 -56 25 -98 95 -16 28 -74 124 -128
215 -90 152 -98 169 -97 216 0 38 9 67 33 113 l33 62 -17 97 c-75 434 138 869
525 1075 75 40 225 93 303 107 86 15 350 4 431 -18z"/>
<path d="M839 1862 c-39 -26 -59 -55 -173 -253 -71 -123 -161 -280 -201 -349
-40 -69 -116 -201 -169 -294 -131 -229 -132 -205 26 -474 67 -114 129 -215
139 -226 31 -34 62 -14 113 69 25 42 46 77 46 79 0 14 235 407 257 430 51 54
63 56 431 56 l339 0 44 29 c46 31 25 -3 394 636 137 237 145 252 145 277 0 13
-5 29 -12 36 -9 9 -172 12 -673 12 l-661 0 -45 -28z m682 -82 c10 -6 19 -18
19 -28 0 -28 -380 -686 -413 -713 -35 -29 -90 -44 -116 -30 -11 7 -21 20 -21
31 0 11 29 68 64 127 35 60 76 131 91 158 87 158 222 384 244 409 26 28 73 55
99 56 7 0 22 -5 33 -10z"/>
</g>
</svg>
